<mxfile host="app.diagrams.net" modified="2023-09-13T15:10:07.383Z" agent="Mozilla/5.0 (Windows NT 10.0; Win64; x64) AppleWebKit/537.36 (KHTML, like Gecko) Chrome/116.0.0.0 Safari/537.36" etag="To5kv1M88inMMLs7dpoh" version="21.7.5" type="device">
  <diagram name="Страница — 1" id="7Z3Ww4vYVqV1yDpP9cIw">
    <mxGraphModel dx="1434" dy="790" grid="1" gridSize="10" guides="1" tooltips="1" connect="1" arrows="1" fold="1" page="1" pageScale="1" pageWidth="827" pageHeight="1169" math="0" shadow="0">
      <root>
        <mxCell id="0" />
        <mxCell id="1" parent="0" />
        <mxCell id="rR7eeys9edXyx0E2HSuH-11" value="" style="rounded=0;whiteSpace=wrap;html=1;" vertex="1" parent="1">
          <mxGeometry x="110" y="240" width="170" height="160" as="geometry" />
        </mxCell>
        <mxCell id="rR7eeys9edXyx0E2HSuH-2" value="пользователи" style="text;html=1;strokeColor=none;fillColor=none;align=center;verticalAlign=middle;whiteSpace=wrap;rounded=0;" vertex="1" parent="1">
          <mxGeometry x="110" y="240" width="180" height="20" as="geometry" />
        </mxCell>
        <mxCell id="rR7eeys9edXyx0E2HSuH-4" value="" style="endArrow=none;html=1;rounded=0;" edge="1" parent="1">
          <mxGeometry width="50" height="50" relative="1" as="geometry">
            <mxPoint x="110" y="260" as="sourcePoint" />
            <mxPoint x="280" y="260" as="targetPoint" />
          </mxGeometry>
        </mxCell>
        <mxCell id="rR7eeys9edXyx0E2HSuH-5" value="id int" style="text;html=1;strokeColor=none;fillColor=none;align=left;verticalAlign=middle;whiteSpace=wrap;rounded=0;" vertex="1" parent="1">
          <mxGeometry x="110" y="260" width="130" height="20" as="geometry" />
        </mxCell>
        <mxCell id="rR7eeys9edXyx0E2HSuH-6" value="login varchar(30)" style="text;html=1;strokeColor=none;fillColor=none;align=left;verticalAlign=middle;whiteSpace=wrap;rounded=0;" vertex="1" parent="1">
          <mxGeometry x="110" y="280" width="130" height="20" as="geometry" />
        </mxCell>
        <mxCell id="rR7eeys9edXyx0E2HSuH-8" value="password varchar(200)" style="text;html=1;strokeColor=none;fillColor=none;align=left;verticalAlign=middle;whiteSpace=wrap;rounded=0;" vertex="1" parent="1">
          <mxGeometry x="110" y="300" width="130" height="20" as="geometry" />
        </mxCell>
        <mxCell id="rR7eeys9edXyx0E2HSuH-9" value="email varchar(50)" style="text;html=1;strokeColor=none;fillColor=none;align=left;verticalAlign=middle;whiteSpace=wrap;rounded=0;" vertex="1" parent="1">
          <mxGeometry x="110" y="320" width="130" height="20" as="geometry" />
        </mxCell>
        <mxCell id="rR7eeys9edXyx0E2HSuH-10" value="reg_date date" style="text;html=1;strokeColor=none;fillColor=none;align=left;verticalAlign=middle;whiteSpace=wrap;rounded=0;" vertex="1" parent="1">
          <mxGeometry x="110" y="340" width="130" height="20" as="geometry" />
        </mxCell>
        <mxCell id="rR7eeys9edXyx0E2HSuH-12" value="telephone_number varchar(12)" style="text;html=1;strokeColor=none;fillColor=none;align=left;verticalAlign=middle;whiteSpace=wrap;rounded=0;" vertex="1" parent="1">
          <mxGeometry x="110" y="360" width="180" height="20" as="geometry" />
        </mxCell>
        <mxCell id="rR7eeys9edXyx0E2HSuH-13" value="user_img varchar(250)" style="text;html=1;strokeColor=none;fillColor=none;align=left;verticalAlign=middle;whiteSpace=wrap;rounded=0;" vertex="1" parent="1">
          <mxGeometry x="110" y="380" width="180" height="20" as="geometry" />
        </mxCell>
        <mxCell id="rR7eeys9edXyx0E2HSuH-14" value="" style="rounded=0;whiteSpace=wrap;html=1;" vertex="1" parent="1">
          <mxGeometry x="460" y="240" width="150" height="140" as="geometry" />
        </mxCell>
        <mxCell id="rR7eeys9edXyx0E2HSuH-15" value="брелки" style="text;html=1;strokeColor=none;fillColor=none;align=center;verticalAlign=middle;whiteSpace=wrap;rounded=0;" vertex="1" parent="1">
          <mxGeometry x="460" y="240" width="150" height="20" as="geometry" />
        </mxCell>
        <mxCell id="rR7eeys9edXyx0E2HSuH-16" value="" style="endArrow=none;html=1;rounded=0;entryX=1;entryY=0;entryDx=0;entryDy=0;" edge="1" parent="1" target="rR7eeys9edXyx0E2HSuH-17">
          <mxGeometry width="50" height="50" relative="1" as="geometry">
            <mxPoint x="460" y="260" as="sourcePoint" />
            <mxPoint x="630" y="260" as="targetPoint" />
          </mxGeometry>
        </mxCell>
        <mxCell id="rR7eeys9edXyx0E2HSuH-17" value="id int" style="text;html=1;strokeColor=none;fillColor=none;align=left;verticalAlign=middle;whiteSpace=wrap;rounded=0;" vertex="1" parent="1">
          <mxGeometry x="460" y="260" width="150" height="20" as="geometry" />
        </mxCell>
        <mxCell id="rR7eeys9edXyx0E2HSuH-26" value="title varchar(30)" style="text;html=1;strokeColor=none;fillColor=none;align=left;verticalAlign=middle;whiteSpace=wrap;rounded=0;" vertex="1" parent="1">
          <mxGeometry x="460" y="280" width="150" height="20" as="geometry" />
        </mxCell>
        <mxCell id="rR7eeys9edXyx0E2HSuH-27" value="description varchar(100)" style="text;html=1;strokeColor=none;fillColor=none;align=left;verticalAlign=middle;whiteSpace=wrap;rounded=0;" vertex="1" parent="1">
          <mxGeometry x="460" y="300" width="150" height="20" as="geometry" />
        </mxCell>
        <mxCell id="rR7eeys9edXyx0E2HSuH-28" value="user_id int (foreign key)" style="text;html=1;strokeColor=none;fillColor=none;align=left;verticalAlign=middle;whiteSpace=wrap;rounded=0;" vertex="1" parent="1">
          <mxGeometry x="460" y="320" width="170" height="20" as="geometry" />
        </mxCell>
        <mxCell id="rR7eeys9edXyx0E2HSuH-30" value="keychain_img varchar(250)" style="text;html=1;strokeColor=none;fillColor=none;align=left;verticalAlign=middle;whiteSpace=wrap;rounded=0;" vertex="1" parent="1">
          <mxGeometry x="460" y="340" width="150" height="20" as="geometry" />
        </mxCell>
        <mxCell id="rR7eeys9edXyx0E2HSuH-31" value="price float" style="text;html=1;strokeColor=none;fillColor=none;align=left;verticalAlign=middle;whiteSpace=wrap;rounded=0;" vertex="1" parent="1">
          <mxGeometry x="460" y="360" width="150" height="20" as="geometry" />
        </mxCell>
        <mxCell id="rR7eeys9edXyx0E2HSuH-33" value="" style="rounded=0;whiteSpace=wrap;html=1;" vertex="1" parent="1">
          <mxGeometry x="270" y="490" width="150" height="140" as="geometry" />
        </mxCell>
        <mxCell id="rR7eeys9edXyx0E2HSuH-34" value="комментарии" style="text;html=1;strokeColor=none;fillColor=none;align=center;verticalAlign=middle;whiteSpace=wrap;rounded=0;" vertex="1" parent="1">
          <mxGeometry x="270" y="490" width="150" height="20" as="geometry" />
        </mxCell>
        <mxCell id="rR7eeys9edXyx0E2HSuH-35" value="" style="endArrow=none;html=1;rounded=0;entryX=1;entryY=0;entryDx=0;entryDy=0;" edge="1" target="rR7eeys9edXyx0E2HSuH-36" parent="1">
          <mxGeometry width="50" height="50" relative="1" as="geometry">
            <mxPoint x="270" y="510" as="sourcePoint" />
            <mxPoint x="440" y="510" as="targetPoint" />
          </mxGeometry>
        </mxCell>
        <mxCell id="rR7eeys9edXyx0E2HSuH-36" value="id int" style="text;html=1;strokeColor=none;fillColor=none;align=left;verticalAlign=middle;whiteSpace=wrap;rounded=0;" vertex="1" parent="1">
          <mxGeometry x="270" y="510" width="150" height="20" as="geometry" />
        </mxCell>
        <mxCell id="rR7eeys9edXyx0E2HSuH-37" value="content varchar(100)" style="text;html=1;strokeColor=none;fillColor=none;align=left;verticalAlign=middle;whiteSpace=wrap;rounded=0;" vertex="1" parent="1">
          <mxGeometry x="270" y="530" width="150" height="20" as="geometry" />
        </mxCell>
        <mxCell id="rR7eeys9edXyx0E2HSuH-38" value="description varchar(100)" style="text;html=1;strokeColor=none;fillColor=none;align=left;verticalAlign=middle;whiteSpace=wrap;rounded=0;" vertex="1" parent="1">
          <mxGeometry x="270" y="550" width="150" height="20" as="geometry" />
        </mxCell>
        <mxCell id="rR7eeys9edXyx0E2HSuH-39" value="user_id int (foreign key)" style="text;html=1;strokeColor=none;fillColor=none;align=left;verticalAlign=middle;whiteSpace=wrap;rounded=0;" vertex="1" parent="1">
          <mxGeometry x="270" y="570" width="150" height="20" as="geometry" />
        </mxCell>
        <mxCell id="rR7eeys9edXyx0E2HSuH-40" value="keychain_img varchar(250)" style="text;html=1;strokeColor=none;fillColor=none;align=left;verticalAlign=middle;whiteSpace=wrap;rounded=0;" vertex="1" parent="1">
          <mxGeometry x="270" y="590" width="150" height="20" as="geometry" />
        </mxCell>
        <mxCell id="rR7eeys9edXyx0E2HSuH-41" value="price float" style="text;html=1;strokeColor=none;fillColor=none;align=left;verticalAlign=middle;whiteSpace=wrap;rounded=0;" vertex="1" parent="1">
          <mxGeometry x="270" y="610" width="150" height="20" as="geometry" />
        </mxCell>
        <mxCell id="rR7eeys9edXyx0E2HSuH-42" value="" style="endArrow=none;html=1;rounded=0;entryX=0.5;entryY=1;entryDx=0;entryDy=0;" edge="1" parent="1" target="rR7eeys9edXyx0E2HSuH-13">
          <mxGeometry width="50" height="50" relative="1" as="geometry">
            <mxPoint x="200" y="520" as="sourcePoint" />
            <mxPoint x="440" y="480" as="targetPoint" />
          </mxGeometry>
        </mxCell>
        <mxCell id="rR7eeys9edXyx0E2HSuH-43" value="" style="endArrow=none;html=1;rounded=0;entryX=0;entryY=0.5;entryDx=0;entryDy=0;" edge="1" parent="1">
          <mxGeometry width="50" height="50" relative="1" as="geometry">
            <mxPoint x="200" y="519.5" as="sourcePoint" />
            <mxPoint x="270" y="519.5" as="targetPoint" />
          </mxGeometry>
        </mxCell>
        <mxCell id="rR7eeys9edXyx0E2HSuH-45" value="" style="endArrow=none;html=1;rounded=0;exitX=1;exitY=0.25;exitDx=0;exitDy=0;" edge="1" parent="1">
          <mxGeometry width="50" height="50" relative="1" as="geometry">
            <mxPoint x="280" y="269.5" as="sourcePoint" />
            <mxPoint x="360" y="269.5" as="targetPoint" />
          </mxGeometry>
        </mxCell>
        <mxCell id="rR7eeys9edXyx0E2HSuH-46" value="" style="endArrow=none;html=1;rounded=0;exitX=1;exitY=0.5;exitDx=0;exitDy=0;" edge="1" parent="1" source="rR7eeys9edXyx0E2HSuH-39">
          <mxGeometry width="50" height="50" relative="1" as="geometry">
            <mxPoint x="480" y="580" as="sourcePoint" />
            <mxPoint x="660" y="580" as="targetPoint" />
          </mxGeometry>
        </mxCell>
        <mxCell id="rR7eeys9edXyx0E2HSuH-47" value="" style="endArrow=none;html=1;rounded=0;" edge="1" parent="1">
          <mxGeometry width="50" height="50" relative="1" as="geometry">
            <mxPoint x="660" y="580" as="sourcePoint" />
            <mxPoint x="660" y="270" as="targetPoint" />
          </mxGeometry>
        </mxCell>
        <mxCell id="rR7eeys9edXyx0E2HSuH-48" value="" style="endArrow=none;html=1;rounded=0;" edge="1" parent="1">
          <mxGeometry width="50" height="50" relative="1" as="geometry">
            <mxPoint x="610" y="270" as="sourcePoint" />
            <mxPoint x="660" y="270" as="targetPoint" />
          </mxGeometry>
        </mxCell>
        <mxCell id="rR7eeys9edXyx0E2HSuH-49" value="" style="endArrow=none;html=1;rounded=0;" edge="1" parent="1">
          <mxGeometry width="50" height="50" relative="1" as="geometry">
            <mxPoint x="360" y="330" as="sourcePoint" />
            <mxPoint x="360" y="270" as="targetPoint" />
          </mxGeometry>
        </mxCell>
        <mxCell id="rR7eeys9edXyx0E2HSuH-51" value="" style="endArrow=none;html=1;rounded=0;exitX=1;exitY=0.25;exitDx=0;exitDy=0;entryX=0;entryY=0.5;entryDx=0;entryDy=0;" edge="1" parent="1" target="rR7eeys9edXyx0E2HSuH-28">
          <mxGeometry width="50" height="50" relative="1" as="geometry">
            <mxPoint x="360" y="329.5" as="sourcePoint" />
            <mxPoint x="440" y="329.5" as="targetPoint" />
          </mxGeometry>
        </mxCell>
        <mxCell id="rR7eeys9edXyx0E2HSuH-52" value="1" style="text;html=1;strokeColor=none;fillColor=none;align=center;verticalAlign=middle;whiteSpace=wrap;rounded=0;" vertex="1" parent="1">
          <mxGeometry x="290" y="235" width="25" height="30" as="geometry" />
        </mxCell>
        <mxCell id="rR7eeys9edXyx0E2HSuH-53" value="n" style="text;html=1;strokeColor=none;fillColor=none;align=center;verticalAlign=middle;whiteSpace=wrap;rounded=0;" vertex="1" parent="1">
          <mxGeometry x="430" y="295" width="25" height="30" as="geometry" />
        </mxCell>
        <mxCell id="rR7eeys9edXyx0E2HSuH-54" value="1" style="text;html=1;strokeColor=none;fillColor=none;align=center;verticalAlign=middle;whiteSpace=wrap;rounded=0;" vertex="1" parent="1">
          <mxGeometry x="200" y="400" width="20" height="20" as="geometry" />
        </mxCell>
        <mxCell id="rR7eeys9edXyx0E2HSuH-55" value="n" style="text;html=1;strokeColor=none;fillColor=none;align=center;verticalAlign=middle;whiteSpace=wrap;rounded=0;" vertex="1" parent="1">
          <mxGeometry x="250" y="530" width="20" height="25" as="geometry" />
        </mxCell>
        <mxCell id="rR7eeys9edXyx0E2HSuH-56" value="1" style="text;html=1;strokeColor=none;fillColor=none;align=center;verticalAlign=middle;whiteSpace=wrap;rounded=0;" vertex="1" parent="1">
          <mxGeometry x="610" y="240" width="20" height="25" as="geometry" />
        </mxCell>
        <mxCell id="rR7eeys9edXyx0E2HSuH-57" value="n" style="text;html=1;strokeColor=none;fillColor=none;align=center;verticalAlign=middle;whiteSpace=wrap;rounded=0;" vertex="1" parent="1">
          <mxGeometry x="420" y="555" width="20" height="25" as="geometry" />
        </mxCell>
      </root>
    </mxGraphModel>
  </diagram>
</mxfile>
